<svg width="19" height="15" viewBox="0 0 19 15" fill="none" xmlns="http://www.w3.org/2000/svg">
<path d="M18.4358 14.3182V4.77273C18.4358 4.5919 18.3563 4.41847 18.2149 4.29061C18.0734 4.16274 17.8816 4.09091 17.6816 4.09091H15.419V2.04545C15.419 1.86463 15.3395 1.6912 15.1981 1.56334C15.0567 1.43547 14.8648 1.36364 14.6648 1.36364H13.1564V0.681818C13.1564 0.500989 13.077 0.327566 12.9355 0.1997C12.7941 0.0718343 12.6023 0 12.4022 0H6.36872C6.1687 0 5.97687 0.0718343 5.83543 0.1997C5.69399 0.327566 5.61453 0.500989 5.61453 0.681818V1.36364H4.10615C3.90613 1.36364 3.7143 1.43547 3.57286 1.56334C3.43142 1.6912 3.35196 1.86463 3.35196 2.04545V4.09091H1.0894C0.889371 4.09091 0.69754 4.16274 0.556102 4.29061C0.414664 4.41847 0.335205 4.5919 0.335205 4.77273V14.3182C0.335205 14.499 0.414664 14.6724 0.556102 14.8003C0.69754 14.9282 0.889371 15 1.0894 15H17.6816C17.8816 15 18.0734 14.9282 18.2149 14.8003C18.3563 14.6724 18.4358 14.499 18.4358 14.3182ZM2.97487 10.9091H3.72906C3.82907 10.9091 3.92499 10.945 3.99571 11.0089C4.06643 11.0729 4.10615 11.1596 4.10615 11.25V13.2955C4.10615 13.3859 4.06643 13.4726 3.99571 13.5365C3.92499 13.6004 3.82907 13.6364 3.72906 13.6364H2.97487C2.87486 13.6364 2.77894 13.6004 2.70822 13.5365C2.6375 13.4726 2.59777 13.3859 2.59777 13.2955V11.25C2.59777 11.1596 2.6375 11.0729 2.70822 11.0089C2.77894 10.945 2.87486 10.9091 2.97487 10.9091ZM5.99163 10.9091H6.74582C6.84583 10.9091 6.94175 10.945 7.01247 11.0089C7.08319 11.0729 7.12291 11.1596 7.12291 11.25V13.2955C7.12291 13.3859 7.08319 13.4726 7.01247 13.5365C6.94175 13.6004 6.84583 13.6364 6.74582 13.6364H5.99163C5.89162 13.6364 5.7957 13.6004 5.72498 13.5365C5.65426 13.4726 5.61453 13.3859 5.61453 13.2955V11.25C5.61453 11.1596 5.65426 11.0729 5.72498 11.0089C5.7957 10.945 5.89162 10.9091 5.99163 10.9091ZM8.63129 11.25C8.63129 11.1596 8.67102 11.0729 8.74174 11.0089C8.81246 10.945 8.90838 10.9091 9.00839 10.9091H9.76258C9.86259 10.9091 9.95851 10.945 10.0292 11.0089C10.0999 11.0729 10.1397 11.1596 10.1397 11.25V13.2955C10.1397 13.3859 10.0999 13.4726 10.0292 13.5365C9.95851 13.6004 9.86259 13.6364 9.76258 13.6364H9.00839C8.90838 13.6364 8.81246 13.6004 8.74174 13.5365C8.67102 13.4726 8.63129 13.3859 8.63129 13.2955V11.25ZM12.0251 10.9091H12.7793C12.8794 10.9091 12.9753 10.945 13.046 11.0089C13.1167 11.0729 13.1564 11.1596 13.1564 11.25V13.2955C13.1564 13.3859 13.1167 13.4726 13.046 13.5365C12.9753 13.6004 12.8794 13.6364 12.7793 13.6364H12.0251C11.9251 13.6364 11.8292 13.6004 11.7585 13.5365C11.6878 13.4726 11.6481 13.3859 11.6481 13.2955V11.25C11.6481 11.1596 11.6878 11.0729 11.7585 11.0089C11.8292 10.945 11.9251 10.9091 12.0251 10.9091ZM14.6648 11.25C14.6648 11.1596 14.7045 11.0729 14.7753 11.0089C14.846 10.945 14.9419 10.9091 15.0419 10.9091H15.7961C15.8961 10.9091 15.992 10.945 16.0627 11.0089C16.1335 11.0729 16.1732 11.1596 16.1732 11.25V13.2955C16.1732 13.3859 16.1335 13.4726 16.0627 13.5365C15.992 13.6004 15.8961 13.6364 15.7961 13.6364H15.0419C14.9419 13.6364 14.846 13.6004 14.7753 13.5365C14.7045 13.4726 14.6648 13.3859 14.6648 13.2955V11.25Z" fill="white"/>
</svg>
