<svg width="123" height="31" viewBox="0 0 123 31" fill="none" xmlns="http://www.w3.org/2000/svg">
<path d="M0 0H107.5C116.06 0 123 6.93959 123 15.5C123 24.0604 116.06 31 107.5 31H0V0Z" fill="white"/>
<path d="M33.9148 19.3726V8.67529H35.9652V19.3726H33.9148Z" fill="#515151"/>
<path d="M37.2195 15.3885C37.2225 14.698 37.3953 14.0188 37.7228 13.4109C38.0409 12.7931 38.5377 12.2855 39.1486 11.9544C39.7821 11.6147 40.4916 11.4415 41.2104 11.4511C42.3821 11.4511 43.3428 11.8319 44.0927 12.5936C44.8425 13.3553 45.2174 14.3161 45.2174 15.4759C45.2174 16.6476 44.8398 17.6186 44.0846 18.3889C43.7145 18.7691 43.2696 19.0682 42.7779 19.2674C42.2862 19.4666 41.7585 19.5615 41.2282 19.5461C40.5224 19.5464 39.8265 19.3801 39.1971 19.0606C38.5699 18.7576 38.0548 18.2635 37.726 17.6494C37.3716 16.9497 37.1975 16.1725 37.2195 15.3885ZM39.3234 15.4986C39.3234 16.2678 39.5062 16.8564 39.872 17.2642C40.04 17.4563 40.2471 17.6102 40.4795 17.7157C40.7118 17.8211 40.9641 17.8757 41.2193 17.8757C41.4744 17.8757 41.7267 17.8211 41.959 17.7157C42.1914 17.6102 42.3985 17.4563 42.5665 17.2642C42.9291 16.8542 43.1103 16.2608 43.1103 15.484C43.1103 14.7288 42.9291 14.1451 42.5665 13.7329C42.3994 13.5394 42.1926 13.3842 41.9601 13.2778C41.7276 13.1714 41.4749 13.1163 41.2193 13.1163C40.9636 13.1163 40.7109 13.1714 40.4784 13.2778C40.2459 13.3842 40.0391 13.5394 39.872 13.7329C39.5041 14.1408 39.3201 14.7293 39.3201 15.4986H39.3234Z" fill="#515151"/>
<path d="M46.2578 19.8822L48.5996 20.167C48.6053 20.2739 48.6321 20.3785 48.6785 20.4749C48.7249 20.5713 48.7899 20.6575 48.8698 20.7286C49.064 20.8743 49.3715 20.9471 49.7891 20.9471C50.3285 20.9471 50.7299 20.8672 50.9931 20.7076C51.1845 20.5865 51.329 20.4039 51.4026 20.1897C51.4812 19.8823 51.5129 19.5647 51.4964 19.2478V18.115C50.8847 18.9522 50.1117 19.3708 49.1773 19.3708C48.6861 19.3821 48.2003 19.2665 47.7668 19.0351C47.3334 18.8038 46.9669 18.4646 46.7029 18.0502C46.2271 17.3543 45.9886 16.4912 45.9875 15.4609C45.9875 14.1662 46.3004 13.1736 46.9262 12.4831C47.2164 12.1502 47.5761 11.885 47.9798 11.7061C48.3835 11.5271 48.8216 11.4388 49.2631 11.4473C50.2212 11.4473 51.0115 11.8681 51.634 12.7097V11.6237H53.5534V18.5827C53.5534 19.4976 53.4778 20.1811 53.3268 20.6331C53.2068 21.0351 52.9888 21.4011 52.6924 21.698C52.3789 21.9795 52.0061 22.1869 51.6016 22.3049C51.041 22.4648 50.4593 22.5384 49.8765 22.5234C48.5624 22.5234 47.6307 22.2984 47.0816 21.8485C46.8205 21.6472 46.6102 21.3877 46.4671 21.0907C46.3241 20.7938 46.2525 20.4675 46.2578 20.1379C46.2513 20.0618 46.253 19.9793 46.2578 19.8822ZM48.0898 15.3362C48.0898 16.1584 48.2489 16.7604 48.5672 17.1423C48.7064 17.3219 48.8851 17.467 49.0894 17.5663C49.2937 17.6657 49.5182 17.7166 49.7454 17.7152C49.9874 17.7177 50.227 17.6663 50.4468 17.5647C50.6665 17.4631 50.8609 17.3138 51.0158 17.1278C51.3599 16.7361 51.5326 16.1562 51.5336 15.388C51.5336 14.5853 51.368 13.9919 51.0368 13.6078C50.8858 13.4218 50.6943 13.2726 50.477 13.1716C50.2597 13.0707 50.0222 13.0206 49.7826 13.0252C49.5496 13.0207 49.3186 13.07 49.1078 13.1694C48.897 13.2688 48.712 13.4155 48.5672 13.5981C48.2489 13.9747 48.0898 14.554 48.0898 15.3362Z" fill="#515151"/>
<path d="M55.2026 10.5736V8.67529H57.2531V10.5736H55.2026ZM55.2026 19.3742V11.6239H57.2531V19.3726L55.2026 19.3742Z" fill="#515151"/>
<path d="M65.7365 13.914L63.7151 14.2797C63.6763 13.9295 63.5119 13.6052 63.2523 13.367C62.9873 13.1549 62.6543 13.0462 62.3153 13.0611C62.0849 13.0514 61.8553 13.0939 61.6437 13.1856C61.432 13.2772 61.2439 13.4156 61.0934 13.5903C60.7892 13.9431 60.637 14.5327 60.637 15.3592C60.637 16.2784 60.7913 16.9257 61.0999 17.3012C61.2487 17.4864 61.4387 17.6342 61.6548 17.7328C61.8709 17.8315 62.107 17.8782 62.3444 17.8692C62.6932 17.8837 63.0345 17.7651 63.2992 17.5375C63.5485 17.3174 63.7232 16.9354 63.8252 16.4046L65.8384 16.7477C65.6291 17.6713 65.2278 18.3693 64.6344 18.8419C64.041 19.3144 63.2458 19.5502 62.2489 19.5491C61.1161 19.5491 60.2125 19.1914 59.5382 18.4761C58.8639 17.7608 58.5272 16.7709 58.5283 15.5064C58.5283 14.2279 58.866 13.2321 59.5414 12.5189C60.2168 11.8058 61.1339 11.4492 62.2926 11.4492C63.2367 11.4492 63.987 11.6526 64.5437 12.0593C65.1005 12.4661 65.498 13.0843 65.7365 13.914Z" fill="#515151"/>
<path d="M69.7986 11.6243H70.9314V11.04C70.9314 10.3927 71.001 9.90719 71.1402 9.58352C71.2982 9.23933 71.5704 8.96033 71.9105 8.79376C72.3487 8.57773 72.8335 8.47375 73.3217 8.49113C73.9037 8.49056 74.4823 8.57954 75.0372 8.75492L74.7605 10.1839C74.4521 10.1085 74.136 10.0694 73.8186 10.0674C73.7021 10.0552 73.5843 10.0675 73.4729 10.1035C73.3614 10.1394 73.2587 10.1982 73.1712 10.2762C73.0434 10.4137 72.9786 10.6808 72.9786 11.074V11.6226H74.5112V13.241H72.9786V19.3778H70.9363V13.2361H69.8034L69.7986 11.6243Z" fill="#515151"/>
<path d="M77.2607 19.3725H75.2102V11.6238H77.115V12.7243C77.4387 12.2043 77.7316 11.8617 77.9938 11.6966C78.2585 11.5297 78.566 11.4431 78.879 11.4474C79.3558 11.4505 79.8227 11.5843 80.2287 11.8342L79.5943 13.6144C79.3122 13.4125 78.9779 13.2962 78.6314 13.2794C78.3693 13.2747 78.1136 13.361 77.908 13.5238C77.7089 13.6856 77.552 13.9672 77.4371 14.3815C77.3222 14.7958 77.2655 15.66 77.2655 16.9709L77.2607 19.3725Z" fill="#515151"/>
<path d="M85.838 19.3727V18.2123C85.5546 18.6241 85.1723 18.958 84.7261 19.1834C84.2768 19.419 83.777 19.5417 83.2696 19.541C82.7813 19.5486 82.2992 19.4305 81.8698 19.1979C81.4699 18.9841 81.1536 18.6422 80.9716 18.2269C80.7871 17.8126 80.6948 17.2408 80.6948 16.5115V11.624H82.7469V15.1844C82.7469 16.2741 82.7847 16.9414 82.8602 17.1863C82.9276 17.4217 83.0724 17.6275 83.2712 17.7705C83.4948 17.9214 83.7608 17.9968 84.0303 17.9858C84.3665 17.9899 84.6957 17.8893 84.9721 17.6977C85.2328 17.5258 85.4318 17.2752 85.5402 16.9824C85.6481 16.6976 85.6993 16.0006 85.6939 14.8915V11.624H87.7444V19.3727H85.838Z" fill="#515151"/>
<path d="M89.4939 10.5736V8.67529H91.5444V10.5736H89.4939ZM89.4939 19.3742V11.6239H91.5444V19.3726L89.4939 19.3742Z" fill="#515151"/>
<path d="M96.8251 11.6241V13.257H95.4252V16.3804C95.4126 16.7493 95.4256 17.1187 95.464 17.4858C95.4921 17.5912 95.557 17.683 95.6469 17.7447C95.7486 17.8146 95.8699 17.8503 95.9932 17.8467C96.2771 17.8261 96.5558 17.76 96.8186 17.6509L96.9934 19.2401C96.4806 19.4522 95.9298 19.5569 95.375 19.5476C95.0326 19.5528 94.6925 19.4896 94.3749 19.3615C94.1176 19.264 93.8931 19.0957 93.7275 18.8759C93.5721 18.6354 93.4736 18.3625 93.4395 18.0781C93.3823 17.5986 93.3601 17.1156 93.3731 16.6329V13.257H92.4329V11.6241H93.3731V9.50244H95.4317V11.6241H96.8251Z" fill="#515151"/>
<path d="M56.9502 25.6092V20.9763H55.2465V20.3564H59.3453V20.9763H57.6345V25.6092H56.9502Z" fill="#3D79D1"/>
<path d="M61.7298 24.3838L62.3859 24.4662C62.2824 24.8556 62.0907 25.1578 61.8109 25.3727C61.5311 25.5877 61.1736 25.6952 60.7386 25.6952C60.1907 25.6952 59.7556 25.5244 59.4335 25.1828C59.1136 24.8389 58.9537 24.3575 58.9537 23.7389C58.9537 23.0987 59.116 22.6018 59.4405 22.2483C59.765 21.8948 60.186 21.718 60.7033 21.718C61.2042 21.718 61.6134 21.8912 61.9308 22.2376C62.2483 22.5839 62.407 23.0712 62.407 23.6995C62.407 23.7377 62.4059 23.795 62.4035 23.8714H59.6098C59.6333 24.2895 59.7497 24.6096 59.959 24.8317C60.1683 25.0539 60.4293 25.1649 60.7421 25.1649C60.9749 25.1649 61.1736 25.1028 61.3382 24.9786C61.5028 24.8544 61.6334 24.6561 61.7298 24.3838ZM59.6451 23.3411H61.7368C61.7086 23.0211 61.6287 22.781 61.497 22.6209C61.2947 22.3725 61.0325 22.2483 60.7104 22.2483C60.4188 22.2483 60.173 22.3474 59.9731 22.5457C59.7756 22.744 59.6663 23.0091 59.6451 23.3411Z" fill="#3D79D1"/>
<path d="M65.6311 24.2154L66.2554 24.2978C66.1872 24.735 66.012 25.0777 65.7298 25.3262C65.45 25.5722 65.1055 25.6952 64.6963 25.6952C64.1837 25.6952 63.7709 25.5256 63.4582 25.1864C63.1478 24.8448 62.9926 24.3563 62.9926 23.721C62.9926 23.3101 63.0596 22.9506 63.1936 22.6424C63.3277 22.3343 63.5311 22.1038 63.8039 21.9509C64.079 21.7956 64.3777 21.718 64.6998 21.718C65.1066 21.718 65.4394 21.8231 65.6981 22.0333C65.9567 22.2411 66.1225 22.5373 66.1954 22.9219L65.5781 23.0187C65.5194 22.7631 65.4147 22.5708 65.2642 22.4418C65.1161 22.3128 64.9362 22.2483 64.7245 22.2483C64.4047 22.2483 64.1449 22.3654 63.945 22.5994C63.7451 22.8312 63.6451 23.199 63.6451 23.703C63.6451 24.2142 63.7416 24.5857 63.9344 24.8174C64.1272 25.0491 64.3788 25.1649 64.6892 25.1649C64.9385 25.1649 65.1466 25.0873 65.3136 24.932C65.4806 24.7768 65.5864 24.5379 65.6311 24.2154Z" fill="#3D79D1"/>
<path d="M66.7986 25.6092V20.3564H67.4335V22.2411C67.7298 21.8924 68.1037 21.718 68.5552 21.718C68.8327 21.718 69.0738 21.7741 69.2784 21.8864C69.4829 21.9963 69.6287 22.1492 69.7158 22.3451C69.8051 22.5409 69.8498 22.8252 69.8498 23.1978V25.6092H69.2149V23.1978C69.2149 22.8753 69.1455 22.6413 69.0067 22.4955C68.8704 22.3474 68.6764 22.2734 68.4247 22.2734C68.2366 22.2734 68.0591 22.3236 67.8921 22.4239C67.7275 22.5218 67.6099 22.6556 67.5394 22.8252C67.4688 22.9948 67.4335 23.2289 67.4335 23.5275V25.6092H66.7986Z" fill="#3D79D1"/>
<path d="M70.8198 25.6092V21.804H71.3913V22.3451C71.6664 21.927 72.0638 21.718 72.5835 21.718C72.8093 21.718 73.0162 21.7598 73.2043 21.8434C73.3948 21.9246 73.5371 22.0321 73.6311 22.1659C73.7252 22.2997 73.791 22.4585 73.8287 22.6424C73.8522 22.7619 73.8639 22.9709 73.8639 23.2695V25.6092H73.229V23.2946C73.229 23.0318 73.2043 22.8359 73.1549 22.7069C73.1056 22.5756 73.0174 22.4717 72.8904 22.3952C72.7658 22.3164 72.6188 22.277 72.4495 22.277C72.179 22.277 71.9451 22.3642 71.7475 22.5385C71.5523 22.7129 71.4547 23.0437 71.4547 23.531V25.6092H70.8198Z" fill="#3D79D1"/>
<path d="M74.6047 23.7066C74.6047 23.0019 74.7975 22.48 75.1832 22.1408C75.5054 21.8589 75.8981 21.718 76.3613 21.718C76.8763 21.718 77.2973 21.89 77.6241 22.234C77.951 22.5756 78.1144 23.0485 78.1144 23.6529C78.1144 24.1426 78.0415 24.5283 77.8957 24.8102C77.7523 25.0897 77.5418 25.3071 77.2643 25.4623C76.9892 25.6176 76.6882 25.6952 76.3613 25.6952C75.8369 25.6952 75.4125 25.5244 75.0879 25.1828C74.7658 24.8413 74.6047 24.3492 74.6047 23.7066ZM75.2573 23.7066C75.2573 24.1939 75.3619 24.5594 75.5712 24.803C75.7805 25.0443 76.0439 25.1649 76.3613 25.1649C76.6764 25.1649 76.9386 25.0431 77.1479 24.7995C77.3572 24.5558 77.4619 24.1844 77.4619 23.6851C77.4619 23.2145 77.356 22.8586 77.1444 22.6174C76.9351 22.3737 76.6741 22.2519 76.3613 22.2519C76.0439 22.2519 75.7805 22.3725 75.5712 22.6138C75.3619 22.855 75.2573 23.2193 75.2573 23.7066Z" fill="#3D79D1"/>
<path d="M78.8481 25.6092V20.3564H79.4831V25.6092H78.8481Z" fill="#3D79D1"/>
<path d="M80.2344 23.7066C80.2344 23.0019 80.4272 22.48 80.8129 22.1408C81.135 21.8589 81.5278 21.718 81.991 21.718C82.506 21.718 82.9269 21.89 83.2538 22.234C83.5807 22.5756 83.7441 23.0485 83.7441 23.6529C83.7441 24.1426 83.6712 24.5283 83.5254 24.8102C83.382 25.0897 83.1715 25.3071 82.894 25.4623C82.6189 25.6176 82.3179 25.6952 81.991 25.6952C81.4666 25.6952 81.0422 25.5244 80.7176 25.1828C80.3955 24.8413 80.2344 24.3492 80.2344 23.7066ZM80.8869 23.7066C80.8869 24.1939 80.9916 24.5594 81.2009 24.803C81.4102 25.0443 81.6736 25.1649 81.991 25.1649C82.3061 25.1649 82.5683 25.0431 82.7776 24.7995C82.9869 24.5558 83.0916 24.1844 83.0916 23.6851C83.0916 23.2145 82.9857 22.8586 82.7741 22.6174C82.5648 22.3737 82.3038 22.2519 81.991 22.2519C81.6736 22.2519 81.4102 22.3725 81.2009 22.6138C80.9916 22.855 80.8869 23.2193 80.8869 23.7066Z" fill="#3D79D1"/>
<path d="M84.3755 25.9245L84.9928 26.0177C85.0187 26.2112 85.0904 26.3521 85.208 26.4405C85.3655 26.5599 85.5807 26.6197 85.8535 26.6197C86.1474 26.6197 86.3744 26.5599 86.5343 26.4405C86.6942 26.3211 86.8024 26.1539 86.8588 25.9389C86.8917 25.8075 86.907 25.5316 86.9047 25.1112C86.6272 25.4432 86.2815 25.6092 85.8676 25.6092C85.3526 25.6092 84.954 25.4205 84.6718 25.0431C84.3896 24.6657 84.2485 24.213 84.2485 23.6851C84.2485 23.322 84.3132 22.9876 84.4425 22.6819C84.5719 22.3737 84.7588 22.136 85.0034 21.9688C85.2503 21.8016 85.5396 21.718 85.8711 21.718C86.3132 21.718 86.6777 21.8996 86.9646 22.2626V21.804H87.5502V25.0933C87.5502 25.6857 87.4902 26.1049 87.3703 26.3509C87.2527 26.5994 87.0646 26.7952 86.8059 26.9385C86.5496 27.0819 86.2333 27.1535 85.857 27.1535C85.4102 27.1535 85.0493 27.0508 84.7741 26.8454C84.499 26.6423 84.3661 26.3354 84.3755 25.9245ZM84.9011 23.6385C84.9011 24.1378 84.9987 24.5021 85.1939 24.7314C85.3891 24.9607 85.6336 25.0754 85.9276 25.0754C86.2192 25.0754 86.4637 24.9619 86.6613 24.735C86.8588 24.5056 86.9576 24.1473 86.9576 23.66C86.9576 23.1942 86.8553 22.8431 86.6507 22.6066C86.4484 22.3701 86.2039 22.2519 85.917 22.2519C85.6348 22.2519 85.3949 22.3689 85.1974 22.603C84.9999 22.8347 84.9011 23.1799 84.9011 23.6385Z" fill="#3D79D1"/>
<path d="M88.5167 21.0981V20.3564H89.1516V21.0981H88.5167ZM88.5167 25.6092V21.804H89.1516V25.6092H88.5167Z" fill="#3D79D1"/>
<path d="M92.686 24.3838L93.3421 24.4662C93.2386 24.8556 93.047 25.1578 92.7671 25.3727C92.4873 25.5877 92.1299 25.6952 91.6948 25.6952C91.1469 25.6952 90.7119 25.5244 90.3897 25.1828C90.0699 24.8389 89.91 24.3575 89.91 23.7389C89.91 23.0987 90.0722 22.6018 90.3968 22.2483C90.7213 21.8948 91.1422 21.718 91.6596 21.718C92.1604 21.718 92.5696 21.8912 92.8871 22.2376C93.2045 22.5839 93.3633 23.0712 93.3633 23.6995C93.3633 23.7377 93.3621 23.795 93.3597 23.8714H90.5661C90.5896 24.2895 90.706 24.6096 90.9153 24.8317C91.1246 25.0539 91.3856 25.1649 91.6984 25.1649C91.9312 25.1649 92.1299 25.1028 92.2945 24.9786C92.4591 24.8544 92.5896 24.6561 92.686 24.3838ZM90.6013 23.3411H92.6931C92.6649 23.0211 92.5849 22.781 92.4532 22.6209C92.251 22.3725 91.9888 22.2483 91.6666 22.2483C91.375 22.2483 91.1293 22.3474 90.9294 22.5457C90.7319 22.744 90.6225 23.0091 90.6013 23.3411Z" fill="#3D79D1"/>
<path d="M93.8889 24.4734L94.5167 24.3731C94.552 24.6287 94.6496 24.8245 94.8095 24.9607C94.9718 25.0969 95.1975 25.1649 95.4868 25.1649C95.7783 25.1649 95.9947 25.1052 96.1358 24.9858C96.2769 24.864 96.3474 24.7218 96.3474 24.5594C96.3474 24.4137 96.2851 24.299 96.1605 24.2154C96.0735 24.1581 95.8571 24.0852 95.5114 23.9968C95.0458 23.8774 94.7225 23.7747 94.5414 23.6887C94.3627 23.6003 94.2263 23.4797 94.1322 23.3268C94.0405 23.1715 93.9947 23.0008 93.9947 22.8144C93.9947 22.6448 94.0323 22.4884 94.1076 22.3451C94.1852 22.1993 94.2898 22.0787 94.4215 21.9832C94.5203 21.9091 94.6543 21.847 94.8236 21.7968C94.9953 21.7443 95.1787 21.718 95.3739 21.718C95.6678 21.718 95.9253 21.761 96.1464 21.847C96.3698 21.933 96.5344 22.05 96.6402 22.1981C96.746 22.3439 96.8189 22.5397 96.8589 22.7858L96.2381 22.8718C96.2099 22.6759 96.1276 22.523 95.9912 22.4131C95.8571 22.3032 95.6666 22.2483 95.4197 22.2483C95.1281 22.2483 94.92 22.2973 94.7954 22.3952C94.6708 22.4932 94.6084 22.6078 94.6084 22.7392C94.6084 22.8228 94.6343 22.898 94.686 22.9649C94.7378 23.0342 94.8189 23.0915 94.9294 23.1369C94.9929 23.1608 95.1799 23.2157 95.4903 23.3017C95.9394 23.4236 96.2522 23.5239 96.4286 23.6027C96.6073 23.6791 96.7472 23.7914 96.8483 23.9395C96.9494 24.0876 97 24.2715 97 24.4913C97 24.7063 96.9377 24.9093 96.813 25.1004C96.6908 25.2891 96.5132 25.436 96.2804 25.5412C96.0476 25.6439 95.7842 25.6952 95.4903 25.6952C95.0035 25.6952 94.632 25.5925 94.3756 25.3871C94.1217 25.1816 93.9594 24.8771 93.8889 24.4734Z" fill="#3D79D1"/>
<path d="M39.8104 22.3214C39.5693 22.1806 39.3362 22.2081 39.0595 22.2324C38.8447 22.2403 38.6408 22.3287 38.4882 22.48L38.2746 22.1207L38.1419 22.3602L37.9962 22.0883L37.8894 22.3327C37.7017 22.1142 37.535 22.2987 37.3457 22.3635L37.3182 22.1337C37.0883 22.1806 36.8504 22.5787 36.619 22.0948C36.496 22.2793 36.3973 22.3764 36.2015 22.1612C36.1746 22.1266 36.1383 22.1004 36.097 22.0858C36.0557 22.0711 36.0111 22.0686 35.9684 22.0784C35.9257 22.0883 35.8867 22.1102 35.8561 22.1415C35.8254 22.1727 35.8043 22.2122 35.7953 22.255L35.3211 22.3084L35.3098 22.1207L35.1868 22.2275L35.0395 21.9233L34.9732 22.1887L34.8113 22.1385L34.7806 22.3489C34.5637 22.3311 34.3193 22.2421 34.1332 22.3133C33.8485 22.4205 33.6164 22.634 33.4859 22.9088C33.3241 23.2325 33.3742 23.4995 33.4325 23.8151C33.1881 23.943 33.0004 24.0967 33.2464 24.4074C33.2852 24.456 33.2464 24.6114 33.1978 24.6761C33.1348 24.742 33.0921 24.8247 33.0749 24.9143C33.0577 25.0038 33.0666 25.0964 33.1007 25.181C33.1083 25.2245 33.1071 25.269 33.0974 25.3121C33.0877 25.3551 33.0696 25.3958 33.0441 25.4319C32.9565 25.54 32.8602 25.6407 32.756 25.7329L32.9842 26.042L32.7884 26.0808C32.824 26.131 32.8531 26.1747 32.8305 26.1391C32.7302 26.3501 32.6411 26.5661 32.5634 26.7864C32.4955 27.0211 32.3271 27.1441 32.0197 27.1554C31.9776 27.1554 31.9387 27.2379 31.929 27.2493C31.2283 26.6343 31.2153 25.7717 31.2137 24.9577C31.0308 24.613 31.3513 24.2505 31.0292 23.9478C30.9726 23.8944 30.9936 23.765 30.9564 23.6808C30.9098 23.5993 30.8556 23.5224 30.7946 23.451L30.9208 23.5157L30.9386 23.4672L30.7897 23.4575L30.8917 23.0367C30.8917 23.0367 30.8124 23.0092 30.814 22.9946C30.848 22.7939 30.8933 22.5965 30.9483 22.3376L30.6522 22.1434C30.9758 21.8456 30.9435 21.1416 30.5049 20.6868L30.7994 20.525C30.6538 20.2418 30.5146 20.0395 30.5826 19.7158C30.6505 19.3922 30.5389 19.0588 30.5162 18.7286C30.5049 18.5846 30.5162 18.4406 30.5162 18.2723C30.5162 18.2723 30.4321 18.2545 30.4304 18.2286C30.426 18.1515 30.4416 18.0745 30.4758 18.0052C30.5226 17.9279 30.5768 17.8553 30.6376 17.7884C30.5583 17.7334 30.4757 17.6767 30.3981 17.6265C30.3204 17.5764 30.2702 17.5683 30.144 17.5116L30.4321 17.3951L30.0534 17.1329L30.288 17.0472L30.0323 16.7381L30.356 16.6652V16.5795L29.9401 16.4176L30.2136 16.3723L30.3155 16.0486L30.008 15.9159L30.1343 15.7832L29.843 15.6392L30.0598 15.5826C30.042 15.3754 30.0242 15.1747 30.0064 14.9724L30.1084 14.9352L29.8106 14.7896L30.0712 14.5679L30.0226 14.5937L30.0485 14.6213L30.0663 14.5679C30.0517 14.4562 30.0388 14.3429 30.0242 14.2312C30.0097 14.1196 30 13.9982 29.9838 13.8833C29.9449 13.6227 29.9012 13.3654 29.8624 13.1049C29.8414 12.9657 29.8349 12.8233 29.8025 12.6857C29.7701 12.5481 29.7151 12.4041 29.6666 12.2536L29.8462 12.2844C29.8328 12.1861 29.8056 12.0902 29.7653 11.9995C29.6208 11.7472 29.5639 11.4541 29.6035 11.1661C29.6035 11.1013 29.5258 11.0301 29.4837 10.9622C29.4238 11.1337 29.3817 11.2486 29.3429 11.3651C29.3251 11.4185 29.2863 11.4881 29.3041 11.527C29.3898 11.6888 29.4513 11.8506 29.3041 12.0287C29.2587 12.0853 29.3542 12.2423 29.3607 12.3523C29.355 12.4348 29.3375 12.5159 29.3089 12.5935H29.2248L29.3575 12.7812L29.2118 13.0094H29.2199C29.1643 13.0238 29.1101 13.0433 29.0581 13.0676C29.0904 13.2295 29.1358 13.3913 29.1811 13.5758L28.9901 13.6146L29.2086 13.736L29.0872 13.927L29.3753 14.0403L29.0516 14.1487L29.2134 14.3591L29.0095 14.372V14.7135L29.1568 14.7977L28.9367 14.9433L29.2604 15.0339L28.9901 15.1958C29.1082 15.3317 29.3542 15.424 29.037 15.5615L29.2587 15.6878L29.0014 15.7671L29.1519 15.8998C29.0921 16.047 29.0273 16.1992 28.9642 16.3529L28.9157 16.3804H29.105L29.139 16.7041C29.1082 16.7348 28.9772 16.8012 28.9772 16.8659C28.9777 17.0344 28.9389 17.2006 28.8639 17.3514C28.7603 17.578 28.8364 17.9195 28.9173 18.1881C29.0128 18.5118 28.9691 18.7303 28.626 18.8856L28.8558 18.9423C28.8428 19.1268 28.8266 19.3274 28.8153 19.5297C28.8056 19.6916 28.7991 19.8647 28.791 20.033H28.7053L28.8817 20.2839C28.8477 20.4732 28.8266 20.5849 28.8072 20.6982C28.8072 20.7241 28.8072 20.7645 28.791 20.7742C28.5936 20.9134 28.702 21.1707 28.5726 21.339C28.5515 21.3666 28.5823 21.4345 28.5839 21.4847C28.5839 21.5818 28.5839 21.6789 28.5839 21.776C28.5952 21.92 28.6292 22.0641 28.6324 22.2081C28.6271 22.349 28.6136 22.4895 28.592 22.6289L28.4852 22.6515C28.5071 22.7196 28.5228 22.7894 28.5321 22.8603C28.5483 23.1597 28.5968 23.4656 28.3233 23.7002C28.2813 23.7358 28.3023 23.8475 28.291 23.9559C27.6291 24.1356 27.6291 24.1356 27.4413 24.0012C27.3167 23.5821 27.0545 23.2115 27.0028 22.7648C26.9506 22.6894 26.8879 22.6218 26.8167 22.5641C26.7456 22.5308 26.6696 22.5089 26.5917 22.4994L26.7988 22.09L26.4752 22.0608L26.637 21.8359L26.3603 21.7404L26.5108 21.619L26.2308 21.0995L26.3133 21.0089C25.9994 20.7095 25.9897 20.627 26.1887 20.4716L25.9589 20.1447L25.5948 20.3551L25.7097 20.4506L25.4993 20.5655L25.5851 20.5865C25.5511 20.9393 25.5252 21.2953 25.4783 21.6465C25.472 21.8215 25.4225 21.9922 25.3342 22.1434C25.2646 22.234 25.0672 22.221 24.9296 22.2647C24.8779 22.2825 24.839 22.336 24.7889 22.3602C24.7031 22.3991 24.559 22.4816 24.5299 22.4541C24.3681 22.3036 24.224 22.3894 24.0881 22.4541C24.0508 22.4745 24.0095 22.4866 23.967 22.4894C23.9246 22.4921 23.8821 22.4856 23.8424 22.4701C23.8028 22.4547 23.767 22.4308 23.7376 22.4001C23.7082 22.3693 23.6859 22.3325 23.6722 22.2923L23.0426 22.3829C22.9164 22.4007 22.7902 22.412 22.6623 22.4266L22.6542 22.5124L22.4924 22.3262C22.4018 22.3716 22.2934 22.4589 22.261 22.4363C21.9762 22.2405 21.6525 22.3554 21.4 22.412C21.0763 22.4848 20.7252 22.3279 20.4144 22.5302L20.3772 22.3068L20.1701 22.4557L20.115 22.2599C19.8691 22.4557 19.3852 22.4897 19.1942 22.3295C19.3221 22.09 19.3107 21.8763 19.0744 21.7048L19 21.5138L19.1489 21.543C19.1764 21.4232 19.1942 21.2193 19.233 21.208C19.3788 21.2134 19.5229 21.2413 19.6603 21.2905L19.7202 21.1497L19.8642 21.3115L19.95 21.1497C20.0422 21.1772 20.1296 21.1999 20.2121 21.2306C20.3303 21.2743 20.4484 21.3714 20.5585 21.3601C20.7065 21.3209 20.8474 21.2587 20.976 21.1756L21.1378 21.3374L21.311 21.2371L21.3757 21.4701L21.4389 21.2096L21.646 21.4588L21.6832 21.1432L21.8742 21.3504L21.9049 21.0672C22.0668 21.2452 22.2076 21.4361 22.4471 21.2112L22.5636 21.4005L22.8776 21.1659C23.1478 21.3471 24.292 21.1432 24.6675 20.8228C24.3859 20.5299 24.7144 20.2742 24.7225 19.9958C24.7456 19.8377 24.7874 19.6828 24.8471 19.5346L24.7711 19.5135L25.0947 19.219H24.7711C24.8552 19.0394 24.9329 18.8872 24.996 18.7335C24.996 18.7076 24.996 18.6833 24.996 18.6574L24.9636 18.6995L24.8714 18.6752L25.221 18.0505L25.1708 18.0166L25.1934 17.9971L25.2485 18.0732L25.4103 17.7495L25.5899 17.8661L25.6013 17.6557L26.0382 17.8175L26.0706 17.7463L26.2518 18.18L26.4444 18.1234L26.3894 18.2852L26.3651 18.358H26.4477L26.5415 18.5474L26.6661 18.884L26.5949 18.9293L26.7034 18.9471C26.7034 19.1332 26.6467 19.3193 26.7034 19.4504C26.76 19.5815 26.9461 19.6123 27.0869 19.6916L26.8442 19.7854L27.1581 20.2709L27.1436 20.3599L27.1549 20.3697L27.197 20.436L27.4203 20.4554H27.4284L27.2973 20.5104L27.1614 20.6237L27.6226 20.962C27.7039 20.8107 27.7507 20.6433 27.7597 20.4717C27.7686 20.3002 27.7395 20.1288 27.6744 19.9699V19.3129L27.8362 19.2595L27.6744 19.1705L27.9705 18.9892L27.5935 18.9439L27.9009 18.7319L27.6258 18.6121C27.7262 18.4827 27.8734 18.371 27.9009 18.2334C27.9285 18.0959 27.8152 17.9696 27.7553 17.8175C27.9171 17.6557 27.9171 17.298 27.7553 17.0083C27.9366 16.7445 28.079 16.5228 27.9883 16.1652C27.9382 15.9483 27.7634 15.6441 28.0741 15.4223C28.113 15.3948 28.0369 15.2022 28.0078 15.0873C27.9786 14.9724 27.9366 14.8462 27.8961 14.7038C28.1097 14.6423 28.1793 14.529 27.9754 14.3801L28.2003 14.1341L27.9285 14.0176C27.9964 13.6519 28.0595 13.3023 28.1372 12.8848C28.3104 12.8006 28.3444 12.6501 28.121 12.4413C28.0841 12.4185 28.0543 12.3858 28.035 12.3468C28.0158 12.3078 28.0079 12.2642 28.0123 12.221C28.0167 12.1778 28.0332 12.1367 28.0599 12.1024C28.0865 12.0681 28.1223 12.042 28.1631 12.027C28.2084 12.0011 28.2117 11.904 28.2376 11.8409C28.333 11.6127 28.1793 11.3554 28.3541 11.1208C28.5515 10.8537 28.3444 10.4734 28.5159 10.1821C28.5337 10.153 28.3994 10.03 28.312 9.92156C28.3573 9.86492 28.6357 9.79209 28.4204 9.7047C28.4738 9.47813 28.5952 9.25803 28.5499 9.08001C28.4828 8.75167 28.4762 8.41382 28.5305 8.08311C28.5372 7.86017 28.5861 7.64052 28.6745 7.43577C28.7344 7.31115 28.5985 7.09915 28.5742 6.92275C28.5678 6.79785 28.5738 6.67263 28.592 6.54891L28.7328 6.52625C28.5855 6.22847 28.6502 5.75915 28.8768 5.5957L28.647 5.34485L28.8315 5.23319L28.6357 5.03089L28.7393 4.98881H28.8218L28.8008 4.90951C28.7838 4.79144 28.7838 4.67155 28.8008 4.55348C28.8482 4.3984 28.9485 4.26486 29.0842 4.17614C29.2199 4.08742 29.3825 4.04914 29.5436 4.06797C29.6378 4.05719 29.7303 4.03435 29.8187 4C29.8974 4.08147 29.953 4.18244 29.9797 4.29252C30.0065 4.40259 30.0034 4.51781 29.9708 4.6263C29.9708 4.6441 30.0663 4.69751 30.0615 4.69427C30.0404 5.00014 30.0226 5.26879 30 5.59408L30.1796 5.80608L29.953 5.87891L30.1877 6.08768L30.0501 6.13461L30.2233 6.25922C30.2071 6.50521 30.1909 6.76415 30.1731 7.0328L30.4628 7.08296L30.1974 7.2448L30.4466 7.3856L30.1974 7.49888L30.4903 7.89862L30.3058 8.00543L30.5421 8.19801L30.2379 8.24171L30.5194 8.88905L30.3204 8.98615L30.568 9.1318L30.3042 9.25803L30.5 9.31791C30.5211 9.55581 30.5502 9.77429 30.5583 9.99277C30.5583 10.1546 30.5421 10.3164 30.534 10.4783L30.4466 10.3164L30.3706 10.386L30.5324 10.4686L30.6942 10.7534L30.4531 10.8974L30.6942 10.9589C30.7153 11.0706 30.7379 11.192 30.7638 11.3247L30.5745 11.3829L30.7978 11.4541L30.6279 11.6661L30.9515 11.637L30.7525 11.8943L30.9451 11.9429L30.7946 12.0367C30.8544 12.0885 30.9564 12.1436 30.9564 12.1824C30.924 12.4365 30.8674 12.6873 30.8172 12.9463L31.0211 12.99L30.8593 13.2198L31.1652 13.3816L30.8868 13.6826L31.0826 13.9901C31.0234 14.0655 30.9964 14.1613 31.0076 14.2565C31.0188 14.3518 31.0673 14.4387 31.1425 14.4983C31.2186 14.5727 31.2072 14.7362 31.1959 14.8672L31.3108 15.2751L31.225 15.2945C31.2212 15.3636 31.2277 15.4329 31.2445 15.5C31.2756 15.5609 31.3131 15.6184 31.3561 15.6716C31.327 15.7978 31.2946 15.903 31.2801 16.0114C31.2687 16.1293 31.2687 16.248 31.2801 16.3658L31.2995 17.2414L31.2623 17.2786H31.3367C31.4019 17.3381 31.463 17.4019 31.5196 17.4696C31.3432 17.6799 31.7656 17.9033 31.5018 18.1007C31.7073 18.3451 31.4209 18.7319 31.7478 18.939L31.6669 19.0248C31.6361 19.0054 31.6037 18.9876 31.5714 18.9698L31.594 19.1057C31.6541 19.1586 31.7083 19.2178 31.7559 19.2821C31.8271 19.3922 31.9679 19.5362 31.7559 19.5394V20.0848H31.8384V20.9312L32.0601 21.2549L31.8627 21.3439C31.9031 21.4572 31.9468 21.5705 31.9857 21.687C32.0439 21.865 32.2171 22.0446 31.9711 22.2259C31.9517 22.2405 32.0375 22.3991 32.0892 22.5253L31.8643 22.6871L32.209 22.7276L32.0197 23.0351C32.0488 23.1548 32.0731 23.2584 32.099 23.3588L31.9938 23.451L32.0601 23.5076L32.1475 23.4073H32.3644L32.4048 22.9509L32.5812 22.8765C32.5135 22.7112 32.4802 22.5338 32.4832 22.3552C32.4863 22.1765 32.5257 22.0004 32.599 21.8375C32.7269 21.5591 32.735 21.2177 33.0247 21.0445C33.0926 21.0445 33.1865 21.0445 33.2706 21.0672C33.5781 21.1287 33.9309 20.9539 34.2012 21.2468C34.2336 21.2824 34.3371 21.2759 34.4003 21.2581C34.5621 21.2112 34.7239 21.1497 34.8987 21.0882L34.9262 21.2937H35.3454L35.5833 20.8859L35.6723 21.1448L35.949 20.962L35.8309 21.331L36.0963 21.1691L36.1562 21.331C36.2439 21.2374 36.3398 21.1518 36.4426 21.0753C36.56 21.0143 36.6824 20.9634 36.8084 20.9231L36.7841 21.195L36.9459 21.0688L37.001 21.3083L37.1434 20.9765C37.3052 20.9425 37.4266 21.3196 37.6192 21.0202L37.8732 21.1691C37.9754 21.1199 38.0846 21.0871 38.1969 21.072C38.4105 21.0914 38.6193 21.1772 38.8281 21.1772C38.9899 21.1772 39.142 21.0688 39.3055 21.038C39.3991 21.0378 39.492 21.0531 39.5806 21.0833L39.6777 21.1497L39.6567 21.0089L39.8768 20.9312C39.8768 20.894 39.8849 20.8244 39.8978 20.6577C39.9723 20.8098 40.0062 20.8794 40.0402 20.9539L40.1147 20.826L40.3283 21.0542L40.5209 20.9118C40.5419 21.1173 40.5419 21.1173 41.2475 21.0186L41.1634 21.1804C41.4126 21.2937 41.4514 21.3989 41.3495 21.6352C41.3316 21.7006 41.3229 21.7681 41.3236 21.8359C41.2928 22.0835 40.9853 21.9411 40.9028 22.1337C40.8575 22.2405 40.7928 22.3683 40.6196 22.2955C40.5458 22.2752 40.4696 22.2649 40.393 22.2647L40.3671 22.1644L40.2296 22.4072C40.1988 22.2647 40.181 22.1871 40.1567 22.0722L40.0143 22.323L39.8735 22.1013L39.8104 22.3343V22.3214Z" fill="#3D79D1"/>
</svg>
