<svg width="13" height="13" viewBox="0 0 13 13" fill="none" xmlns="http://www.w3.org/2000/svg">
<path d="M5.08414 1.39258H7.46988C8.31231 1.39258 8.91492 1.39301 9.38785 1.43066C9.85518 1.46789 10.1529 1.53962 10.3927 1.6582V1.65723C10.8016 1.86109 11.1419 2.17025 11.3791 2.54688L11.4748 2.71289C11.5935 2.9406 11.6654 3.22509 11.7033 3.67773C11.7417 4.13735 11.7423 4.72468 11.7423 5.54883V7.87598C11.7423 8.69877 11.7417 9.28545 11.7033 9.74512C11.6653 10.1982 11.5932 10.4841 11.4738 10.7139C11.2672 11.109 10.9522 11.4412 10.5636 11.6738L10.3918 11.7676C10.154 11.8856 9.85782 11.9569 9.39078 11.9941C8.9178 12.0318 8.31402 12.0322 7.46988 12.0322H5.08414C4.24168 12.0322 3.63909 12.0318 3.16617 11.9941C2.69893 11.9569 2.40107 11.8861 2.16129 11.7676H2.16226C1.75296 11.5641 1.41194 11.2557 1.17496 10.8789L1.08023 10.7129C0.961252 10.485 0.88869 10.2004 0.850739 9.74707C0.81227 9.28741 0.811676 8.70024 0.811676 7.87598V5.54883C0.811676 4.72637 0.812304 4.14023 0.850739 3.68066C0.88858 3.22849 0.960367 2.94243 1.07925 2.71289C1.2863 2.31731 1.60235 1.98413 1.99136 1.75098L2.16226 1.65723C2.40009 1.53911 2.69691 1.46789 3.16422 1.43066C3.63709 1.39302 4.24035 1.39258 5.08414 1.39258ZM5.08121 1.84961C4.4469 1.84961 3.9614 1.84972 3.56949 1.86523L3.20914 1.88574C2.88103 1.91163 2.67583 1.95397 2.52945 2.00488L2.39957 2.05859L2.39664 2.06055C2.07034 2.2231 1.79539 2.47137 1.60269 2.77734L1.52457 2.91211L1.52261 2.91602C1.44432 3.06891 1.37859 3.28575 1.34293 3.71387C1.30477 4.14968 1.30484 4.71741 1.30484 5.5459V7.87305H1.30582C1.29821 8.32691 1.30297 8.78083 1.32047 9.23438L1.34195 9.69043L1.34293 9.70312C1.36965 10.0255 1.41365 10.2281 1.46695 10.374L1.52261 10.5039L1.52457 10.5068C1.69308 10.8295 1.94839 11.0978 2.25992 11.2842L2.39664 11.3584L2.39957 11.3604C2.55212 11.4348 2.77023 11.4976 3.20621 11.5322V11.5332C3.65092 11.5703 4.23131 11.5693 5.08121 11.5693H7.46695C8.31433 11.5693 8.89385 11.5686 9.34 11.5332L9.33902 11.5322C9.66712 11.5063 9.87233 11.465 10.0187 11.4141L10.1486 11.3604L10.1515 11.3584C10.4784 11.1959 10.7538 10.9481 10.9464 10.6416L11.0236 10.5068L11.0255 10.5039C11.1039 10.351 11.1696 10.1336 11.2052 9.70508C11.2434 9.26925 11.2433 8.70152 11.2433 7.87305V5.5459C11.2433 4.92642 11.2424 4.45279 11.2267 4.07031L11.2052 3.71582C11.1785 3.39368 11.1355 3.19076 11.0822 3.04492L11.0255 2.91602L11.0236 2.91211L10.9464 2.77734C10.7812 2.51483 10.555 2.29558 10.2882 2.13574L10.1525 2.06055L10.1486 2.05859L10.0187 2.00488C9.87233 1.95399 9.66706 1.91163 9.33902 1.88574H9.33804C8.89378 1.84898 8.31463 1.84961 7.46695 1.84961H5.08121Z" fill="white" stroke="white"/>
</svg>
