<svg width="16" height="16" viewBox="0 0 16 16" fill="none" xmlns="http://www.w3.org/2000/svg">
<path d="M8.06845 1.48682H10.4542C11.2966 1.48682 11.8992 1.48725 12.3722 1.5249C12.8395 1.56213 13.1372 1.63384 13.377 1.75244V1.75146C13.7859 1.95534 14.1262 2.26449 14.3634 2.64111L14.4591 2.80713C14.5778 3.03484 14.6497 3.31934 14.6876 3.77197C14.7261 4.23159 14.7267 4.81892 14.7267 5.64307V7.97021C14.7267 8.793 14.7261 9.37969 14.6876 9.83936C14.6496 10.2925 14.5775 10.5783 14.4581 10.8081C14.3947 10.9293 14.3193 11.0434 14.2364 11.1519V5.64893C14.2364 5.02752 14.2368 4.55279 14.2208 4.17041L14.1983 3.81689C14.1716 3.49587 14.1285 3.2935 14.0753 3.14795L14.0186 3.01904L14.0167 3.01514L13.9395 2.88037C13.7743 2.61756 13.5485 2.39755 13.2813 2.23779L13.1446 2.16357L13.1417 2.16162L13.0118 2.10791C12.9143 2.074 12.7908 2.04395 12.6222 2.02002L12.3321 1.98877H12.3204C11.7679 1.95871 11.2145 1.94606 10.6612 1.95068L10.6515 1.94092H4.82822C4.88053 1.90435 4.93401 1.86908 4.98935 1.83643L5.14658 1.75146C5.38431 1.63341 5.68056 1.56213 6.14755 1.5249C6.6205 1.48723 7.22438 1.48682 8.06845 1.48682Z" fill="white" stroke="white"/>
<path d="M5.08414 4.39258H7.46988C8.31231 4.39258 8.91492 4.39301 9.38785 4.43066C9.85518 4.46789 10.1529 4.53962 10.3927 4.6582V4.65723C10.8016 4.86109 11.1419 5.17025 11.3791 5.54688L11.4748 5.71289C11.5935 5.9406 11.6654 6.22509 11.7033 6.67773C11.7417 7.13735 11.7423 7.72468 11.7423 8.54883V10.876C11.7423 11.6988 11.7417 12.2855 11.7033 12.7451C11.6653 13.1982 11.5932 13.4841 11.4738 13.7139C11.2672 14.109 10.9522 14.4412 10.5636 14.6738L10.3918 14.7676C10.154 14.8856 9.85782 14.9569 9.39078 14.9941C8.9178 15.0318 8.31402 15.0322 7.46988 15.0322H5.08414C4.24168 15.0322 3.63909 15.0318 3.16617 14.9941C2.69893 14.9569 2.40107 14.8861 2.16129 14.7676H2.16226C1.75296 14.5641 1.41194 14.2557 1.17496 13.8789L1.08023 13.7129C0.961252 13.485 0.88869 13.2004 0.850739 12.7471C0.81227 12.2874 0.811676 11.7002 0.811676 10.876V8.54883C0.811676 7.72637 0.812304 7.14023 0.850739 6.68066C0.88858 6.22849 0.960367 5.94243 1.07925 5.71289C1.2863 5.31731 1.60235 4.98413 1.99136 4.75098L2.16226 4.65723C2.40009 4.53911 2.69691 4.46789 3.16422 4.43066C3.63709 4.39302 4.24035 4.39258 5.08414 4.39258ZM5.08121 4.84961C4.4469 4.84961 3.9614 4.84972 3.56949 4.86523L3.20914 4.88574C2.88103 4.91163 2.67583 4.95397 2.52945 5.00488L2.39957 5.05859L2.39664 5.06055C2.07034 5.2231 1.79539 5.47137 1.60269 5.77734L1.52457 5.91211L1.52261 5.91602C1.44432 6.06891 1.37859 6.28575 1.34293 6.71387C1.30477 7.14968 1.30484 7.71741 1.30484 8.5459V10.873H1.30582C1.29821 11.3269 1.30297 11.7808 1.32047 12.2344L1.34195 12.6904L1.34293 12.7031C1.36965 13.0255 1.41365 13.2281 1.46695 13.374L1.52261 13.5039L1.52457 13.5068C1.69308 13.8295 1.94839 14.0978 2.25992 14.2842L2.39664 14.3584L2.39957 14.3604C2.55212 14.4348 2.77023 14.4976 3.20621 14.5322V14.5332C3.65092 14.5703 4.23131 14.5693 5.08121 14.5693H7.46695C8.31433 14.5693 8.89385 14.5686 9.34 14.5332L9.33902 14.5322C9.66712 14.5063 9.87233 14.465 10.0187 14.4141L10.1486 14.3604L10.1515 14.3584C10.4784 14.1959 10.7538 13.9481 10.9464 13.6416L11.0236 13.5068L11.0255 13.5039C11.1039 13.351 11.1696 13.1336 11.2052 12.7051C11.2434 12.2693 11.2433 11.7015 11.2433 10.873V8.5459C11.2433 7.92642 11.2424 7.45279 11.2267 7.07031L11.2052 6.71582C11.1785 6.39368 11.1355 6.19076 11.0822 6.04492L11.0255 5.91602L11.0236 5.91211L10.9464 5.77734C10.7812 5.51483 10.555 5.29558 10.2882 5.13574L10.1525 5.06055L10.1486 5.05859L10.0187 5.00488C9.87233 4.95399 9.66706 4.91163 9.33902 4.88574H9.33804C8.89378 4.84898 8.31463 4.84961 7.46695 4.84961H5.08121Z" fill="white" stroke="white"/>
</svg>
