<svg width="20" height="14" viewBox="0 0 20 14" fill="none" xmlns="http://www.w3.org/2000/svg">
<path d="M1.48044 13.2858C1.17178 13.2858 0.913235 13.183 0.704799 12.9773C0.496363 12.7716 0.391782 12.5173 0.391056 12.2144C0.39033 11.9116 0.494911 11.6573 0.704799 11.4516C0.914687 11.2458 1.17323 11.143 1.48044 11.143H18.9106C19.2193 11.143 19.4782 11.2458 19.6873 11.4516C19.8965 11.6573 20.0007 11.9116 20 12.2144C19.9993 12.5173 19.8947 12.7719 19.6862 12.9783C19.4778 13.1848 19.2193 13.2873 18.9106 13.2858H1.48044ZM1.48044 7.9287C1.17178 7.9287 0.913235 7.82585 0.704799 7.62013C0.496363 7.41442 0.391782 7.16013 0.391056 6.85728C0.39033 6.55442 0.494911 6.30013 0.704799 6.09442C0.914687 5.8887 1.17323 5.78585 1.48044 5.78585H18.9106C19.2193 5.78585 19.4782 5.8887 19.6873 6.09442C19.8965 6.30013 20.0007 6.55442 20 6.85728C19.9993 7.16013 19.8947 7.41477 19.6862 7.6212C19.4778 7.82763 19.2193 7.93013 18.9106 7.9287H1.48044ZM1.48044 2.57157C1.17178 2.57157 0.913235 2.46871 0.704799 2.26299C0.496363 2.05728 0.391782 1.803 0.391056 1.50014C0.39033 1.19728 0.494911 0.942996 0.704799 0.737282C0.914687 0.531568 1.17323 0.428711 1.48044 0.428711H18.9106C19.2193 0.428711 19.4782 0.531568 19.6873 0.737282C19.8965 0.942996 20.0007 1.19728 20 1.50014C19.9993 1.803 19.8947 2.05764 19.6862 2.26407C19.4778 2.47049 19.2193 2.57299 18.9106 2.57157H1.48044Z" fill="#597B9D"/>
</svg>
