<svg width="24" height="14" viewBox="0 0 24 14" fill="none" xmlns="http://www.w3.org/2000/svg">
<path d="M2.80886 0.453428C2.87303 0.453143 2.93719 0.452859 3.00331 0.452565C3.10883 0.452583 3.10883 0.452583 3.21649 0.452601C3.29134 0.452366 3.3662 0.452131 3.44332 0.451889C3.65114 0.451306 3.85896 0.451011 4.06678 0.450841C4.29091 0.450592 4.51505 0.449979 4.73918 0.449422C5.28053 0.448159 5.82188 0.447515 6.36323 0.446947C6.61829 0.446666 6.87336 0.446324 7.12843 0.445989C7.97658 0.444902 8.82474 0.443975 9.67289 0.443512C9.89295 0.44339 10.113 0.443268 10.3331 0.443143C10.4151 0.443096 10.4151 0.443096 10.4988 0.443049C11.3844 0.442519 12.2699 0.4409 13.1555 0.438824C14.0651 0.436709 14.9748 0.435559 15.8844 0.435355C16.3949 0.435217 16.9055 0.43466 17.416 0.433025C17.8509 0.431635 18.2858 0.431124 18.7207 0.431745C18.9424 0.432034 19.1641 0.431918 19.3858 0.430673C19.6267 0.429541 19.8676 0.429995 20.1085 0.430835C20.1778 0.430134 20.2471 0.429433 20.3186 0.428711C21.1315 0.435533 21.89 0.758721 22.4903 1.3008C23.1485 1.99763 23.4046 2.82208 23.378 3.75864C23.3602 4.02628 23.2999 4.27316 23.2184 4.52841C23.2042 4.57456 23.1899 4.62071 23.1752 4.66826C22.9783 5.29955 22.7664 5.92625 22.5551 6.55297C22.5099 6.68744 22.4646 6.82191 22.4194 6.95637C22.3252 7.23608 22.2309 7.51573 22.1365 7.79535C22.016 8.15223 21.8962 8.50932 21.7765 8.86646C21.6835 9.14339 21.5902 9.42017 21.4967 9.69692C21.4523 9.82851 21.4081 9.96016 21.364 10.0919C21.3024 10.276 21.2401 10.46 21.1777 10.6439C21.16 10.6973 21.1422 10.7507 21.124 10.8056C20.8004 11.7518 20.2927 12.4826 19.4008 12.9879C18.719 13.3133 18.0151 13.2803 17.2768 13.2777C17.1416 13.2781 17.0064 13.2787 16.8711 13.2793C16.5057 13.2808 16.1403 13.2806 15.7749 13.28C15.469 13.2797 15.1631 13.2802 14.8572 13.2806C14.1352 13.2817 13.4132 13.2815 12.6911 13.2804C11.948 13.2793 11.205 13.2803 10.4619 13.2824C9.82218 13.2841 9.1825 13.2846 8.5428 13.284C8.16149 13.2837 7.78019 13.2839 7.39888 13.2852C7.04013 13.2863 6.68142 13.286 6.32268 13.2844C6.19164 13.2841 6.06059 13.2843 5.92955 13.2851C4.81259 13.2915 3.95866 13.1409 3.12986 12.3426C2.63746 11.8307 2.39749 11.2241 2.17698 10.5614C2.15429 10.4945 2.1316 10.4276 2.10822 10.3586C2.0341 10.1397 1.96068 9.92058 1.88728 9.70143C1.83564 9.54835 1.78397 9.39528 1.73226 9.24223C1.62437 8.92255 1.51678 8.60277 1.40948 8.2829C1.2856 7.91364 1.16125 7.54453 1.03663 7.17552C0.916296 6.81921 0.796193 6.46282 0.676216 6.10639C0.625319 5.9552 0.574381 5.80402 0.5234 5.65286C0.452343 5.44201 0.381547 5.23107 0.31083 5.0201C0.289763 4.95772 0.268696 4.89533 0.24699 4.83105C0.227745 4.77346 0.2085 4.71587 0.188671 4.65654C0.171952 4.60676 0.155234 4.55699 0.138008 4.50571C-0.114888 3.66067 -0.0129612 2.78064 0.384284 2.00004C0.837041 1.23878 1.49513 0.743236 2.35388 0.490127C2.50892 0.458471 2.6505 0.453755 2.80886 0.453428ZM4.60527 4.52814C4.46247 4.82069 4.44834 5.06372 4.49999 5.38291C4.65092 5.69213 4.83438 5.8731 5.14785 6.02199C5.47143 6.07293 5.7178 6.05899 6.01437 5.91814C6.24657 5.7109 6.41736 5.54493 6.46838 5.22963C6.48497 4.86639 6.43945 4.63842 6.18443 4.36038C5.90257 4.10882 5.67147 4.06392 5.30324 4.08029C4.9836 4.13061 4.81535 4.29909 4.60527 4.52814ZM7.71501 4.52814C7.57222 4.82069 7.55809 5.06372 7.60973 5.38291C7.76066 5.69213 7.94412 5.8731 8.2576 6.02199C8.58117 6.07293 8.82754 6.05899 9.12411 5.91814C9.35631 5.7109 9.52711 5.54493 9.57812 5.22963C9.59471 4.86639 9.54919 4.63842 9.29418 4.36038C9.01232 4.10882 8.78121 4.06392 8.41298 4.08029C8.09335 4.13061 7.9251 4.29909 7.71501 4.52814ZM10.8248 4.52814C10.682 4.82069 10.6678 5.06372 10.7195 5.38291C10.8704 5.69213 11.0539 5.8731 11.3673 6.02199C11.6909 6.07293 11.9373 6.05899 12.2339 5.91814C12.4661 5.7109 12.6369 5.54493 12.6879 5.22963C12.7045 4.86639 12.6589 4.63842 12.4039 4.36038C12.1221 4.10882 11.891 4.06392 11.5227 4.08029C11.2031 4.13061 11.0348 4.29909 10.8248 4.52814ZM13.9345 4.52814C13.7917 4.82069 13.7776 5.06372 13.8292 5.38291C13.9802 5.69213 14.1636 5.8731 14.4771 6.02199C14.8007 6.07293 15.047 6.05899 15.3436 5.91814C15.5758 5.7109 15.7466 5.54493 15.7976 5.22963C15.8142 4.86639 15.7687 4.63842 15.5137 4.36038C15.2318 4.10882 15.0007 4.06392 14.6325 4.08029C14.3128 4.13061 14.1446 4.29909 13.9345 4.52814ZM17.0442 4.52814C16.9014 4.82069 16.8873 5.06372 16.939 5.38291C17.0899 5.69213 17.2734 5.8731 17.5868 6.02199C17.9104 6.07293 18.1568 6.05899 18.4533 5.91814C18.6855 5.7109 18.8563 5.54493 18.9074 5.22963C18.9239 4.86639 18.8784 4.63842 18.6234 4.36038C18.3416 4.10882 18.1104 4.06392 17.7422 4.08029C17.4226 4.13061 17.2543 4.29909 17.0442 4.52814ZM6.16014 8.10698C6.01734 8.39953 6.00322 8.64256 6.05486 8.96175C6.20579 9.27097 6.38925 9.45194 6.70272 9.60082C7.0263 9.65177 7.27267 9.63783 7.56924 9.49697C7.80144 9.28974 7.97224 9.12377 8.02325 8.80847C8.03984 8.44523 7.99432 8.21726 7.73931 7.93922C7.45745 7.68766 7.22634 7.64276 6.85811 7.65912C6.53847 7.70945 6.37022 7.87793 6.16014 8.10698ZM9.26988 8.10698C9.12709 8.39953 9.11296 8.64256 9.1646 8.96175C9.31554 9.27097 9.49899 9.45194 9.81247 9.60082C10.136 9.65177 10.3824 9.63783 10.679 9.49697C10.9112 9.28974 11.082 9.12377 11.133 8.80847C11.1496 8.44523 11.1041 8.21726 10.849 7.93922C10.5672 7.68766 10.3361 7.64276 9.96785 7.65912C9.64822 7.70945 9.47997 7.87793 9.26988 8.10698ZM12.3796 8.10698C12.2368 8.39953 12.2227 8.64256 12.2743 8.96175C12.4253 9.27097 12.6087 9.45194 12.9222 9.60082C13.2458 9.65177 13.4922 9.63783 13.7887 9.49697C14.0209 9.28974 14.1917 9.12377 14.2427 8.80847C14.2593 8.44523 14.2138 8.21726 13.9588 7.93922C13.6769 7.68766 13.4458 7.64276 13.0776 7.65912C12.758 7.70945 12.5897 7.87793 12.3796 8.10698ZM15.4894 8.10698C15.3466 8.39953 15.3324 8.64256 15.3841 8.96175C15.535 9.27097 15.7185 9.45194 16.032 9.60082C16.3555 9.65177 16.6019 9.63783 16.8985 9.49697C17.1307 9.28974 17.3015 9.12377 17.3525 8.80847C17.3691 8.44523 17.3236 8.21726 17.0685 7.93922C16.7867 7.68766 16.5556 7.64276 16.1873 7.65912C15.8677 7.70945 15.6995 7.87793 15.4894 8.10698Z" fill="#597B9D"/>
</svg>
